<svg width="64" height="34" viewBox="0 0 64 34" fill="none" xmlns="http://www.w3.org/2000/svg">
<path d="M15.5 14.5791L20.5 12.0791V4.5791L12 10L15.5 14.5791Z" fill="#89A8CB"/>
<path d="M31.5 12L27 14.5791L23 12.0791L26 9.5791H30.5L31.5 12Z" fill="#89A8CB"/>
<path d="M40 7.57908L31.5 12L27.5 4.5791L34 0.0790836C38.4 -0.720916 39.8333 4.74575 40 7.57908Z" fill="#023476"/>
<path d="M33.5 11L38.5 16.5791H43L44 13.0791L40 7.5L33.5 11Z" fill="#89A8CB"/>
<path d="M53.5 16.5791L50.5 12.5791L52.5 7.0791H55L60 12.5791L53.5 16.5791Z" fill="#89A8CB"/>
<path d="M9.5 27.0791L5 33.0791H2V25.0791L9.5 27.0791Z" fill="#7B9DC2"/>
<path d="M4.99996 33.0791C6.19996 33.8791 11.1666 32.7458 13.5 32.0791V26.0791L9.49996 27.0791C7.49996 28.7458 3.79996 32.2791 4.99996 33.0791Z" fill="#023476"/>
<path d="M24.5 22.5791L20 26L22 31.0791L26 32.0791L30.5 22.5791H24.5Z" fill="#023476"/>
<path d="M20 26L14 25.0791V21.0791L15.5 19.0791H21L24.5 22.5791L20 26Z" fill="#89A8CB"/>
<path d="M43 26L34 25.0791L40.5 33.0791L43 31V26Z" fill="#89A8CB"/>
<path d="M50 30.5791L43 31V26L49 22.5791L52.5 24.5791L55 22.5791L63.5 25.5791L61 31.5791H57L52.5 24.5791L50 30.5791Z" fill="#023476"/>
<path d="M3 15L0 9.5791V3.5791L10 5.5V8L3 15Z" fill="#89A8CB"/>
<path d="M10 8L3 15L15.5 14.5791L12 10L20.5 4.5791L12 2.5791L10 5.5V8Z" fill="#023476"/>
</svg>
